# xmcd
# 
# Track frame offsets:
#     150
#     16883
#     28340
#     45979
#     66406
#     89322
#     113701
#     125272
#     152400
#     172244
#     184423
#     206304
#     221862
#     235406
# 
# Disc length: 3412
# 
# Revision: 4
# Processed by: cddbd v1.5.2PL0 Copyright (c) Steve Scherf et al.
# Submitted via: fre:ac v1.1beta1pre5
# 
DISCID=c30d520e
DTITLE=Various Artist - Singin' The Blues
DYEAR=1999
DGENRE=Blues
TTITLE0=Buddy Guy and Junior Wells - Messin' With the Kid
TTITLE1=John Lee Hooker - Boogie Chillin'
TTITLE2=Pinetop Perkins - Hi-Heel Sneakers
TTITLE3=Lightnin' Hopkins - Glory Be
TTITLE4=B.B. King - Every Day I Have the Blues
TTITLE5=Junior Wells - Sweet Home Chicago
TTITLE6=Ray Charles - You Be My Baby
TTITLE7=Joe Carter - Stormy Monday
TTITLE8=Fenton Robinson - Somebody Loan Me A Dime
TTITLE9=John Lee Hooker - Frisco Blues
TTITLE10=Louis Armstrong - St. James Infirmary
TTITLE11=B.B. King - How Blue Can You Get
TTITLE12=Lightnin' Hopkins - Mojo Hand
TTITLE13=Pinetop Perkins - Got My Mojo Working
EXTD=YEAR: 1999
EXTT0=
EXTT1=
EXTT2=
EXTT3=
EXTT4=
EXTT5=
EXTT6=
EXTT7=
EXTT8=
EXTT9=
EXTT10=
EXTT11=
EXTT12=
EXTT13=
PLAYORDER=
